<svg width="89" height="31" viewBox="0 0 89 31" fill="none" xmlns="http://www.w3.org/2000/svg">
<g opacity="0.9" clip-path="url(#clip0_17_7)">
<path d="M52.3165 8.42535C52.3165 10.7213 50.5418 12.4131 48.3639 12.4131C46.186 12.4131 44.4114 10.7213 44.4114 8.42535C44.4114 6.11326 46.186 4.43762 48.3639 4.43762C50.5418 4.43762 52.3165 6.11326 52.3165 8.42535ZM50.5862 8.42535C50.5862 6.99063 49.5577 6.00898 48.3639 6.00898C47.1702 6.00898 46.1416 6.99063 46.1416 8.42535C46.1416 9.84569 47.1702 10.8417 48.3639 10.8417C49.5577 10.8417 50.5862 9.84389 50.5862 8.42535Z" fill="#747474" fill-opacity="0.7"/>
<path d="M60.8433 8.42535C60.8433 10.7213 59.0687 12.4131 56.8908 12.4131C54.7129 12.4131 52.9382 10.7213 52.9382 8.42535C52.9382 6.11506 54.7129 4.43762 56.8908 4.43762C59.0687 4.43762 60.8433 6.11326 60.8433 8.42535ZM59.1131 8.42535C59.1131 6.99063 58.0845 6.00898 56.8908 6.00898C55.697 6.00898 54.6685 6.99063 54.6685 8.42535C54.6685 9.84569 55.697 10.8417 56.8908 10.8417C58.0845 10.8417 59.1131 9.84389 59.1131 8.42535Z" fill="#747474" fill-opacity="0.7"/>
<path d="M69.0149 4.67854V11.8378C69.0149 14.7827 67.2989 15.9855 65.2702 15.9855C63.3605 15.9855 62.2112 14.6928 61.7778 13.6357L63.2842 13.001C63.5524 13.65 64.2097 14.4159 65.2684 14.4159C66.567 14.4159 67.3717 13.6051 67.3717 12.0787V11.5051H67.3113C66.9241 11.9888 66.178 12.4113 65.2365 12.4113C63.2664 12.4113 61.4615 10.6745 61.4615 8.43974C61.4615 6.18877 63.2664 4.43762 65.2365 4.43762C66.1762 4.43762 66.9223 4.86013 67.3113 5.32938H67.3717V4.68034H69.0149V4.67854ZM67.4943 8.43974C67.4943 7.03558 66.5688 6.00898 65.391 6.00898C64.1972 6.00898 63.1971 7.03558 63.1971 8.43974C63.1971 9.82951 64.1972 10.8417 65.391 10.8417C66.5688 10.8417 67.4943 9.82951 67.4943 8.43974Z" fill="#747474" fill-opacity="0.7"/>
<path d="M71.7239 0.4823V12.1686H70.0363V0.4823H71.7239Z" fill="#747474" fill-opacity="0.7"/>
<path d="M78.3002 9.73784L79.6432 10.644C79.2097 11.293 78.1652 12.4113 76.3604 12.4113C74.1221 12.4113 72.4504 10.6602 72.4504 8.42358C72.4504 6.05216 74.1363 4.43585 76.1667 4.43585C78.2114 4.43585 79.2115 6.08272 79.5384 6.97268L79.7178 7.42575L74.4507 9.63357C74.8539 10.4336 75.481 10.8418 76.3604 10.8418C77.2415 10.8418 77.8526 10.4031 78.3002 9.73784ZM74.1665 8.30312L77.6873 6.82346C77.4937 6.32544 76.911 5.97845 76.2253 5.97845C75.346 5.97845 74.1221 6.76413 74.1665 8.30312Z" fill="#747474" fill-opacity="0.7"/>
<path d="M38.0233 7.38799V5.69617H43.6564C43.7114 5.99102 43.7398 6.33981 43.7398 6.71737C43.7398 7.98669 43.397 9.55625 42.2921 10.6745C41.2173 11.8072 39.8441 12.4113 38.0251 12.4113C34.6534 12.4113 31.8182 9.63176 31.8182 6.21935C31.8182 2.80695 34.6534 0.0274048 38.0251 0.0274048C39.8903 0.0274048 41.2191 0.768137 42.2174 1.73361L41.0379 2.92741C40.322 2.24781 39.3521 1.71922 38.0233 1.71922C35.5612 1.71922 33.6355 3.72747 33.6355 6.21935C33.6355 8.71124 35.5612 10.7195 38.0233 10.7195C39.6203 10.7195 40.5298 10.0704 41.1125 9.48074C41.585 9.0025 41.8959 8.3193 42.0185 7.38619L38.0233 7.38799Z" fill="#747474" fill-opacity="0.7"/>
<path d="M36.4413 18.6961L34.7066 23.5525H38.246L36.4973 18.6961H36.4413ZM33.2097 27.7577H31.6989L35.6999 16.9971H37.2527L41.2538 27.7577H39.7429L38.7216 24.841H34.245L33.2097 27.7577Z" fill="#747474" fill-opacity="0.7"/>
<path d="M41.9425 20.3952H43.2575V21.4146H43.3135C43.5163 21.0571 43.8346 20.7598 44.2648 20.5226C44.702 20.2784 45.1496 20.1545 45.6078 20.1545C46.5031 20.1545 47.1886 20.4164 47.6643 20.9332C48.1469 21.4429 48.3917 22.1756 48.3917 23.1278V27.7577H47.0207V23.2269C46.9928 22.0199 46.3947 21.4146 45.2301 21.4146C44.688 21.4146 44.2298 21.6411 43.8591 22.0942C43.4954 22.5402 43.3135 23.0676 43.3135 23.68V27.7577H41.9425V20.3952Z" fill="#747474" fill-opacity="0.7"/>
<path d="M50.922 25.5065C50.922 25.8675 51.0689 26.1684 51.3697 26.4126C51.6669 26.6498 52.0202 26.7666 52.4329 26.7666C52.9994 26.7666 53.5101 26.5542 53.9577 26.1294C54.4124 25.6976 54.6432 25.1879 54.6432 24.6003C54.213 24.2605 53.615 24.0906 52.8526 24.0906C52.3 24.0906 51.8383 24.2286 51.4676 24.5012C51.1039 24.7667 50.922 25.1029 50.922 25.5065ZM52.6847 20.1545C53.6919 20.1545 54.4823 20.4306 55.0629 20.9757C55.6505 21.5243 55.9443 22.2747 55.9443 23.2269V27.7577H54.6432V26.7383H54.5873C54.0172 27.5807 53.2618 27.9984 52.3209 27.9984C51.5165 27.9984 50.845 27.7577 50.3064 27.2763C49.7748 26.7949 49.509 26.1967 49.509 25.4781C49.509 24.7136 49.7923 24.1118 50.3624 23.6658C50.929 23.2128 51.6914 22.9862 52.6427 22.9862C53.4541 22.9862 54.1186 23.1349 54.6432 23.4251V23.1136C54.6432 22.6323 54.4509 22.2287 54.0697 21.896C53.6954 21.5562 53.2583 21.3863 52.7546 21.3863C51.9887 21.3863 51.3871 21.7119 50.95 22.3632L49.7469 21.5987C50.4079 20.6359 51.3871 20.1545 52.6847 20.1545Z" fill="#747474" fill-opacity="0.7"/>
<path d="M58.8046 16.9971V27.7577H57.4336V16.9971H58.8046Z" fill="#747474" fill-opacity="0.7"/>
<path d="M66.8642 20.3951L62.3036 31H60.9046L62.5974 27.2904L59.5896 20.3951H61.0725L63.2409 25.6905H63.2689L65.3813 20.3951H66.8642Z" fill="#747474" fill-opacity="0.7"/>
<path d="M70.6195 27.8709C70.0319 27.8709 69.5423 27.6869 69.1506 27.3188C68.7589 26.9506 68.556 26.4374 68.549 25.7755V21.6553H67.262V20.3952H68.549V18.1439H69.906V20.3952H71.6967V21.6553H69.906V25.3224C69.906 25.8144 69.9969 26.1507 70.1858 26.3276C70.3817 26.4975 70.595 26.5825 70.8293 26.5825C70.9412 26.5825 71.0462 26.5754 71.1511 26.5542C71.2525 26.5259 71.3504 26.494 71.4449 26.4551L71.8646 27.6869C71.5078 27.8072 71.0951 27.8709 70.6195 27.8709Z" fill="#747474" fill-opacity="0.7"/>
<path d="M74.6868 17.8607C74.6868 18.1262 74.5889 18.3563 74.393 18.5545C74.2042 18.7457 73.9803 18.8377 73.7215 18.8377C73.4487 18.8377 73.2214 18.7457 73.036 18.5545C72.8472 18.3563 72.7562 18.1262 72.7562 17.8607C72.7562 17.5882 72.8472 17.3581 73.036 17.167C73.2214 16.9794 73.4487 16.8838 73.7215 16.8838C73.9803 16.8838 74.2042 16.9794 74.393 17.167C74.5889 17.3581 74.6868 17.5882 74.6868 17.8607ZM74.407 20.3951V27.7577H73.036V20.3951H74.407Z" fill="#747474" fill-opacity="0.7"/>
<path d="M79.0122 27.9984C77.928 27.9984 77.0327 27.6267 76.3262 26.8799C75.6267 26.1259 75.277 25.1914 75.277 24.0764C75.277 22.9437 75.6267 22.0093 76.3262 21.273C77.0327 20.5297 77.928 20.1545 79.0122 20.1545C79.7572 20.1545 80.4042 20.3456 80.9568 20.7208C81.5059 21.0996 81.9221 21.6199 82.2018 22.2783L80.9568 22.8022C80.5721 21.8783 79.8971 21.4146 78.9283 21.4146C78.3022 21.4146 77.7601 21.6695 77.3055 22.1792C76.8578 22.6889 76.634 23.3225 76.634 24.0764C76.634 24.8339 76.8578 25.464 77.3055 25.9737C77.7601 26.4834 78.3022 26.7383 78.9283 26.7383C79.925 26.7383 80.6245 26.2781 81.0267 25.3507L82.2438 25.8746C81.9815 26.5365 81.5653 27.0568 80.9987 27.432C80.4287 27.8073 79.7676 27.9984 79.0122 27.9984Z" fill="#747474" fill-opacity="0.7"/>
<path d="M89.0001 25.7188C89.0001 26.3631 88.7203 26.9046 88.1607 27.3471C87.6081 27.7789 86.9156 27.9984 86.0762 27.9984C85.3488 27.9984 84.7052 27.8037 84.1457 27.4179C83.5931 27.0321 83.1979 26.5224 82.9565 25.8887L84.1736 25.3649C84.359 25.8109 84.6213 26.1542 84.9571 26.3985C85.2998 26.6462 85.674 26.7666 86.0762 26.7666C86.5134 26.7666 86.8771 26.6746 87.1674 26.4834C87.4647 26.2958 87.6151 26.0693 87.6151 25.8038C87.6151 25.333 87.2549 24.9897 86.5379 24.7702L85.2928 24.4587C83.8729 24.0906 83.1664 23.3968 83.1664 22.3774C83.1664 21.7084 83.4357 21.1704 83.9778 20.7633C84.5164 20.3598 85.2089 20.1545 86.0483 20.1545C86.6918 20.1545 87.2723 20.3102 87.797 20.6217C88.3181 20.9332 88.6818 21.3509 88.8881 21.8677L87.671 22.3774C87.5312 22.0659 87.3003 21.8252 86.9856 21.6553C86.6778 21.4783 86.3315 21.3863 85.9503 21.3863C85.5936 21.3863 85.2718 21.4783 84.985 21.6553C84.7052 21.8358 84.5654 22.0588 84.5654 22.3208C84.5654 22.7384 84.9571 23.0393 85.7405 23.2269L86.8317 23.5101C88.2761 23.8711 89.0001 24.6074 89.0001 25.7188Z" fill="#747474" fill-opacity="0.7"/>
<path d="M18.7783 3.62828V26.4347C18.7783 28.9885 20.5175 30.4085 22.3633 30.4085C24.0704 30.4085 25.9482 29.1991 25.9482 26.4347V3.80106C25.9482 1.46319 24.2411 0 22.3633 0C20.4854 0 18.7783 1.61437 18.7783 3.62828Z" fill="#747474" fill-opacity="0.7"/>
<path d="M9.38916 15.2043V26.4347C9.38916 28.9885 11.1283 30.4085 12.9741 30.4085C14.6812 30.4085 16.5591 29.1991 16.5591 26.4347V15.377C16.5591 13.0392 14.852 11.576 12.9741 11.576C11.0963 11.576 9.38916 13.1904 9.38916 15.2043Z" fill="#747474" fill-opacity="0.7"/>
<path d="M7.16993 26.7802C7.16993 28.7833 5.56416 30.4085 3.58496 30.4085C1.60576 30.4085 0 28.7833 0 26.7802C0 24.7771 1.60576 23.1519 3.58496 23.1519C5.56416 23.1519 7.16993 24.7771 7.16993 26.7802Z" fill="#747474" fill-opacity="0.7"/>
</g>
<defs>
<clipPath id="clip0_17_7">
<rect width="89" height="31" fill="white"/>
</clipPath>
</defs>
</svg>
